# xmcd CD Database Entry
#
# Track frame offsets:
# 150
# 14823
# 30644
# 47345
# 72078
# 94838
# 112162
# 128594
# 136727
# 156931
# 174854
# 200259
# 225496
# 246969
#
# Disc length: 4066 seconds
#
# Revision: 2
# Processed by: cddbd v1.5.2PL0 Copyright (c) Steve Scherf et al.
# Submitted via: tcd 2.0b
#
DISCID=b20fe00e
DTITLE=モンゴル800 - メッセージ
DYEAR=1900
DGENRE=
TTITLE0=あなたに
TTITLE1=song for you
TTITLE2=手紙
TTITLE3=melody
TTITLE4=月灯り
TTITLE5=トラック 6
TTITLE6=トラック 7
TTITLE7=トラック 8
TTITLE8=トラック 9
TTITLE9=トラック 10
TTITLE10=トラック 11
TTITLE11=トラック 12
TTITLE12=トラック 13
TTITLE13=トラック 14
EXTD=
EXTT0=
EXTT1=
EXTT2=
EXTT3=
EXTT4=
EXTT5=
EXTT6=
EXTT7=
EXTT8=
EXTT9=
EXTT10=
EXTT11=
EXTT12=
EXTT13=
PLAYORDER=
